<svg width="68" height="64" viewBox="0 0 68 64" fill="none" xmlns="http://www.w3.org/2000/svg">
<rect width="68" height="64" rx="10" fill="#5F5F5F" fill-opacity="0.05"/>
<path d="M43.2571 16.0402H31.5139V22.8106C31.5139 23.3621 31.4052 23.9083 31.1942 24.4178C30.9831 24.9274 30.6737 25.3904 30.2837 25.7804C29.8937 26.1704 29.4307 26.4798 28.9211 26.6909C28.4116 26.9019 27.8654 27.0106 27.3139 27.0106H20.5435V43.7602C20.5435 44.8741 20.986 45.9424 21.7736 46.73C22.5613 47.5177 23.6295 47.9602 24.7435 47.9602H43.2571C44.371 47.9602 45.4393 47.5177 46.2269 46.73C47.0146 45.9424 47.4571 44.8741 47.4571 43.7602V20.2402C47.4571 19.1263 47.0146 18.058 46.2269 17.2703C45.4393 16.4827 44.371 16.0402 43.2571 16.0402ZM39.8803 41.4922H28.1203C27.8975 41.4922 27.6838 41.4037 27.5263 41.2461C27.3688 41.0886 27.2803 40.875 27.2803 40.6522C27.2803 40.4294 27.3688 40.2157 27.5263 40.0582C27.6838 39.9007 27.8975 39.8122 28.1203 39.8122H39.8803C40.103 39.8122 40.3167 39.9007 40.4742 40.0582C40.6318 40.2157 40.7203 40.4294 40.7203 40.6522C40.7203 40.875 40.6318 41.0886 40.4742 41.2461C40.3167 41.4037 40.103 41.4922 39.8803 41.4922ZM39.8803 36.2842H28.1203C27.8975 36.2842 27.6838 36.1957 27.5263 36.0381C27.3688 35.8806 27.2803 35.667 27.2803 35.4442C27.2803 35.2214 27.3688 35.0077 27.5263 34.8502C27.6838 34.6927 27.8975 34.6042 28.1203 34.6042H39.8803C40.103 34.6042 40.3167 34.6927 40.4742 34.8502C40.6318 35.0077 40.7203 35.2214 40.7203 35.4442C40.7203 35.667 40.6318 35.8806 40.4742 36.0381C40.3167 36.1957 40.103 36.2842 39.8803 36.2842ZM39.8803 31.0762H28.1203C27.8975 31.0762 27.6838 30.9877 27.5263 30.8301C27.3688 30.6726 27.2803 30.459 27.2803 30.2362C27.2803 30.0134 27.3688 29.7997 27.5263 29.6422C27.6838 29.4847 27.8975 29.3962 28.1203 29.3962H39.8803C40.103 29.3962 40.3167 29.4847 40.4742 29.6422C40.6318 29.7997 40.7203 30.0134 40.7203 30.2362C40.7203 30.459 40.6318 30.6726 40.4742 30.8301C40.3167 30.9877 40.103 31.0762 39.8803 31.0762ZM39.8803 25.8682H33.6475C33.4247 25.8682 33.211 25.7797 33.0535 25.6221C32.896 25.4646 32.8075 25.251 32.8075 25.0282C32.8075 24.8054 32.896 24.5917 33.0535 24.4342C33.211 24.2767 33.4247 24.1882 33.6475 24.1882H39.8803C40.103 24.1882 40.3167 24.2767 40.4742 24.4342C40.6318 24.5917 40.7203 24.8054 40.7203 25.0282C40.7203 25.251 40.6318 25.4646 40.4742 25.6221C40.3167 25.7797 40.103 25.8682 39.8803 25.8682ZM27.3139 25.3306H21.0475L29.8339 16.5442V22.8106C29.8339 23.4789 29.5684 24.1199 29.0958 24.5925C28.6232 25.0651 27.9822 25.3306 27.3139 25.3306Z" fill="#5F5F5F"/>
</svg>
