<svg width="32" height="32" viewBox="0 0 32 32" fill="none" xmlns="http://www.w3.org/2000/svg">
<path d="M27 5V25C27 26.0609 26.5786 27.0783 25.8284 27.8284C25.0783 28.5786 24.0609 29 23 29H9C7.93913 29 6.92172 28.5786 6.17157 27.8284C5.42143 27.0783 5 26.0609 5 25V5C5 4.73478 5.10536 4.48043 5.29289 4.29289C5.48043 4.10536 5.73478 4 6 4H9V3C9 2.73478 9.10536 2.48043 9.29289 2.29289C9.48043 2.10536 9.73478 2 10 2C10.2652 2 10.5196 2.10536 10.7071 2.29289C10.8946 2.48043 11 2.73478 11 3V4H15V3C15 2.73478 15.1054 2.48043 15.2929 2.29289C15.4804 2.10536 15.7348 2 16 2C16.2652 2 16.5196 2.10536 16.7071 2.29289C16.8946 2.48043 17 2.73478 17 3V4H21V3C21 2.73478 21.1054 2.48043 21.2929 2.29289C21.4804 2.10536 21.7348 2 22 2C22.2652 2 22.5196 2.10536 22.7071 2.29289C22.8946 2.48043 23 2.73478 23 3V4H26C26.2652 4 26.5196 4.10536 26.7071 4.29289C26.8946 4.48043 27 4.73478 27 5ZM25 6H23V7C23 7.26522 22.8946 7.51957 22.7071 7.70711C22.5196 7.89464 22.2652 8 22 8C21.7348 8 21.4804 7.89464 21.2929 7.70711C21.1054 7.51957 21 7.26522 21 7V6H17V7C17 7.26522 16.8946 7.51957 16.7071 7.70711C16.5196 7.89464 16.2652 8 16 8C15.7348 8 15.4804 7.89464 15.2929 7.70711C15.1054 7.51957 15 7.26522 15 7V6H11V7C11 7.26522 10.8946 7.51957 10.7071 7.70711C10.5196 7.89464 10.2652 8 10 8C9.73478 8 9.48043 7.89464 9.29289 7.70711C9.10536 7.51957 9 7.26522 9 7V6H7V25C7 25.5304 7.21071 26.0391 7.58579 26.4142C7.96086 26.7893 8.46957 27 9 27H23C23.5304 27 24.0391 26.7893 24.4142 26.4142C24.7893 26.0391 25 25.5304 25 25V6Z" fill="#5F5F5F"/>
<path d="M17.2472 24.3334C17.412 24.0867 17.5 23.7967 17.5 23.5C17.5 23.1022 17.342 22.7206 17.0607 22.4393C16.7794 22.158 16.3978 22 16 22C15.7033 22 15.4133 22.088 15.1666 22.2528C14.92 22.4176 14.7277 22.6519 14.6142 22.926C14.5006 23.2001 14.4709 23.5017 14.5288 23.7926C14.5867 24.0836 14.7296 24.3509 14.9393 24.5607C15.1491 24.7704 15.4164 24.9133 15.7074 24.9712C15.9983 25.0291 16.2999 24.9993 16.574 24.8858C16.8481 24.7723 17.0824 24.58 17.2472 24.3334Z" fill="#5F5F5F"/>
<path d="M17 18.91C19.28 18.4913 21 16.6725 21 14.5C21 12.0187 18.7575 10 16 10C13.2425 10 11 12.0187 11 14.5V15C11 15.2652 11.1054 15.5196 11.2929 15.7071C11.4804 15.8946 11.7348 16 12 16C12.2652 16 12.5196 15.8946 12.7071 15.7071C12.8946 15.5196 13 15.2652 13 15V14.5C13 13.125 14.3463 12 16 12C17.6537 12 19 13.125 19 14.5C19 15.875 17.6537 17 16 17C15.7348 17 15.4804 17.1054 15.2929 17.2929C15.1054 17.4804 15 17.7348 15 18V19C15 19.2652 15.1054 19.5196 15.2929 19.7071C15.4804 19.8946 15.7348 20 16 20C16.2652 20 16.5196 19.8946 16.7071 19.7071C16.8946 19.5196 17 19.2652 17 19V18.91Z" fill="#5F5F5F"/>
</svg>
