<svg width="12" height="11" viewBox="0 0 12 11" fill="none" xmlns="http://www.w3.org/2000/svg">
<path d="M9.6 0C10.2365 0 10.847 0.24399 11.2971 0.678295C11.7471 1.1126 12 1.70164 12 2.31584V6.94753C12 7.56173 11.7471 8.15077 11.2971 8.58508C10.847 9.01939 10.2365 9.26338 9.6 9.26338H6.7656L3.9084 10.9175C3.82235 10.9673 3.72473 10.9955 3.62446 10.9995C3.5242 11.0035 3.42449 10.9832 3.33447 10.9404C3.24446 10.8976 3.167 10.8337 3.1092 10.7545C3.05139 10.6754 3.01509 10.5835 3.0036 10.4873L3 10.4213V9.26338H2.4C1.78425 9.26338 1.19206 9.03501 0.745913 8.62552C0.299763 8.21603 0.0337873 7.65674 0.00300007 7.06332L0 6.94753V2.31584C0 1.70164 0.252856 1.1126 0.702944 0.678295C1.15303 0.24399 1.76348 0 2.4 0H9.6ZM7.2 5.21065H3.6C3.44087 5.21065 3.28826 5.27165 3.17574 5.38022C3.06321 5.4888 3 5.63606 3 5.78961C3 5.94316 3.06321 6.09042 3.17574 6.199C3.28826 6.30757 3.44087 6.36857 3.6 6.36857H7.2C7.35913 6.36857 7.51174 6.30757 7.62426 6.199C7.73679 6.09042 7.8 5.94316 7.8 5.78961C7.8 5.63606 7.73679 5.4888 7.62426 5.38022C7.51174 5.27165 7.35913 5.21065 7.2 5.21065ZM8.4 2.89481H3.6C3.44087 2.89481 3.28826 2.9558 3.17574 3.06438C3.06321 3.17296 3 3.32022 3 3.47377C3 3.62732 3.06321 3.77458 3.17574 3.88315C3.28826 3.99173 3.44087 4.05273 3.6 4.05273H8.4C8.55913 4.05273 8.71174 3.99173 8.82426 3.88315C8.93679 3.77458 9 3.62732 9 3.47377C9 3.32022 8.93679 3.17296 8.82426 3.06438C8.71174 2.9558 8.55913 2.89481 8.4 2.89481Z" fill="#1A73E9"/>
</svg>
