<svg width="16" height="16" viewBox="0 0 16 16" fill="none" xmlns="http://www.w3.org/2000/svg">
<g clip-path="url(#clip0_645_2983)">
<path d="M4.66663 6.44475C4.66663 5.97319 4.85395 5.52095 5.18739 5.18751C5.52083 4.85407 5.97307 4.66675 6.44463 4.66675H12.222C12.4554 4.66675 12.6867 4.71274 12.9024 4.80209C13.1181 4.89144 13.3141 5.02241 13.4792 5.18751C13.6443 5.35261 13.7753 5.54862 13.8646 5.76434C13.954 5.98005 14 6.21126 14 6.44475V12.2221C14 12.4556 13.954 12.6868 13.8646 12.9025C13.7753 13.1182 13.6443 13.3142 13.4792 13.4793C13.3141 13.6444 13.1181 13.7754 12.9024 13.8647C12.6867 13.9541 12.4554 14.0001 12.222 14.0001H6.44463C6.21114 14.0001 5.97993 13.9541 5.76421 13.8647C5.5485 13.7754 5.35249 13.6444 5.18739 13.4793C5.02229 13.3142 4.89132 13.1182 4.80197 12.9025C4.71262 12.6868 4.66663 12.4556 4.66663 12.2221V6.44475Z" stroke="#1A73E9" stroke-linecap="round" stroke-linejoin="round"/>
<path d="M2.67467 11.158C2.47023 11.0415 2.30018 10.873 2.18172 10.6697C2.06325 10.4663 2.00057 10.2353 2 10V3.33333C2 2.6 2.6 2 3.33333 2H10C10.5 2 10.772 2.25667 11 2.66667" stroke="#1A73E9" stroke-linecap="round" stroke-linejoin="round"/>
</g>
<defs>
<clipPath id="clip0_645_2983">
<rect width="16" height="16" fill="white"/>
</clipPath>
</defs>
</svg>
