<svg width="16" height="16" viewBox="0 0 16 16" fill="none" xmlns="http://www.w3.org/2000/svg">
<g clip-path="url(#clip0_240_8641)">
<path d="M2.6665 4.66669H13.3332" stroke="#5F5F5F" stroke-linecap="round" stroke-linejoin="round"/>
<path d="M6.6665 7.33331V11.3333" stroke="#5F5F5F" stroke-linecap="round" stroke-linejoin="round"/>
<path d="M9.3335 7.33331V11.3333" stroke="#5F5F5F" stroke-linecap="round" stroke-linejoin="round"/>
<path d="M3.3335 4.66669L4.00016 12.6667C4.00016 13.0203 4.14064 13.3594 4.39069 13.6095C4.64074 13.8595 4.97987 14 5.3335 14H10.6668C11.0205 14 11.3596 13.8595 11.6096 13.6095C11.8597 13.3594 12.0002 13.0203 12.0002 12.6667L12.6668 4.66669" stroke="#5F5F5F" stroke-linecap="round" stroke-linejoin="round"/>
<path d="M6 4.66667V2.66667C6 2.48986 6.07024 2.32029 6.19526 2.19526C6.32029 2.07024 6.48986 2 6.66667 2H9.33333C9.51014 2 9.67971 2.07024 9.80474 2.19526C9.92976 2.32029 10 2.48986 10 2.66667V4.66667" stroke="#5F5F5F" stroke-linecap="round" stroke-linejoin="round"/>
</g>
<defs>
<clipPath id="clip0_240_8641">
<rect width="16" height="16" fill="white"/>
</clipPath>
</defs>
</svg>
