<svg width="58" height="58" viewBox="0 0 58 58" fill="none" xmlns="http://www.w3.org/2000/svg">
<rect width="58" height="58" rx="29" fill="#D53E3E" fill-opacity="0.1"/>
<g clip-path="url(#clip0_1_33328)">
<path d="M36.875 23.2701C37.575 23.6681 38.005 24.4131 38 25.2181V32.5021C38 33.3111 37.557 34.0571 36.842 34.4501L30.092 38.7201C29.7574 38.9038 29.3818 39.0001 29 39.0001C28.6182 39.0001 28.2426 38.9038 27.908 38.7201L21.158 34.4501C20.8082 34.2589 20.5161 33.9772 20.3124 33.6346C20.1087 33.2919 20.0008 32.9007 20 32.5021V25.2171C20 24.4081 20.443 23.6631 21.158 23.2701L27.908 19.2901C28.2525 19.1001 28.6396 19.0005 29.033 19.0005C29.4264 19.0005 29.8135 19.1001 30.158 19.2901L36.908 23.2701H36.875Z" stroke="#D53E3E" stroke-width="1.5" stroke-linecap="round" stroke-linejoin="round"/>
<path d="M29 25V29" stroke="#D53E3E" stroke-width="1.5" stroke-linecap="round" stroke-linejoin="round"/>
<path d="M29 33H29.01" stroke="#D53E3E" stroke-width="1.5" stroke-linecap="round" stroke-linejoin="round"/>
</g>
<defs>
<clipPath id="clip0_1_33328">
<rect width="24" height="24" fill="white" transform="translate(17 17)"/>
</clipPath>
</defs>
</svg>
