<svg width="20" height="20" viewBox="0 0 20 20" fill="none" xmlns="http://www.w3.org/2000/svg">
<g clip-path="url(#clip0_457_788)">
<path d="M14.9975 3.47501C15.4856 3.64699 15.9083 3.96621 16.2073 4.38863C16.5063 4.81104 16.6668 5.31583 16.6667 5.83334V15.8333C16.6667 16.4964 16.4033 17.1323 15.9345 17.6011C15.4656 18.0699 14.8297 18.3333 14.1667 18.3333H5.83337C5.17033 18.3333 4.53445 18.0699 4.06561 17.6011C3.59677 17.1323 3.33337 16.4964 3.33337 15.8333V5.83334C3.33329 5.31583 3.4938 4.81104 3.79277 4.38863C4.09175 3.96621 4.51444 3.64699 5.00254 3.47501C5.03907 4.33384 5.40599 5.14537 6.02665 5.7401C6.64732 6.33484 7.47376 6.6668 8.33337 6.66667H11.6667C12.4927 6.66674 13.2892 6.36016 13.902 5.80635C14.5148 5.25253 14.9002 4.49093 14.9834 3.66917L14.9975 3.47501ZM12.5 12.5H7.50004C7.27903 12.5 7.06707 12.5878 6.91079 12.7441C6.7545 12.9004 6.66671 13.1123 6.66671 13.3333C6.66671 13.5544 6.7545 13.7663 6.91079 13.9226C7.06707 14.0789 7.27903 14.1667 7.50004 14.1667H12.5C12.7211 14.1667 12.933 14.0789 13.0893 13.9226C13.2456 13.7663 13.3334 13.5544 13.3334 13.3333C13.3334 13.1123 13.2456 12.9004 13.0893 12.7441C12.933 12.5878 12.7211 12.5 12.5 12.5ZM12.5 9.16667H7.50004C7.27903 9.16667 7.06707 9.25447 6.91079 9.41075C6.7545 9.56703 6.66671 9.77899 6.66671 10C6.66671 10.221 6.7545 10.433 6.91079 10.5893C7.06707 10.7455 7.27903 10.8333 7.50004 10.8333H12.5C12.7211 10.8333 12.933 10.7455 13.0893 10.5893C13.2456 10.433 13.3334 10.221 13.3334 10C13.3334 9.77899 13.2456 9.56703 13.0893 9.41075C12.933 9.25447 12.7211 9.16667 12.5 9.16667ZM11.6667 1.66667C12.1087 1.66667 12.5327 1.84227 12.8452 2.15483C13.1578 2.46739 13.3334 2.89131 13.3334 3.33334C13.3334 3.77537 13.1578 4.19929 12.8452 4.51185C12.5327 4.82441 12.1087 5.00001 11.6667 5.00001H8.33337C7.89135 5.00001 7.46742 4.82441 7.15486 4.51185C6.8423 4.19929 6.66671 3.77537 6.66671 3.33334C6.66671 2.89131 6.8423 2.46739 7.15486 2.15483C7.46742 1.84227 7.89135 1.66667 8.33337 1.66667H11.6667Z" fill="#1A73E9"/>
</g>
<defs>
<clipPath id="clip0_457_788">
<rect width="20" height="20" fill="white"/>
</clipPath>
</defs>
</svg>
