<svg width="16" height="16" viewBox="0 0 16 16" fill="none" xmlns="http://www.w3.org/2000/svg">
<g clip-path="url(#clip0_240_8634)">
<path d="M2.6665 13.3334H5.33317L12.3332 6.33338C12.5083 6.15828 12.6472 5.95041 12.7419 5.72164C12.8367 5.49286 12.8855 5.24767 12.8855 5.00004C12.8855 4.75242 12.8367 4.50722 12.7419 4.27845C12.6472 4.04968 12.5083 3.84181 12.3332 3.66671C12.1581 3.49161 11.9502 3.35272 11.7214 3.25796C11.4927 3.1632 11.2475 3.11443 10.9998 3.11443C10.7522 3.11443 10.507 3.1632 10.2782 3.25796C10.0495 3.35272 9.8416 3.49161 9.6665 3.66671L2.6665 10.6667V13.3334Z" stroke="#1A73E9" stroke-linecap="round" stroke-linejoin="round"/>
<path d="M9 4.33333L11.6667 6.99999" stroke="#1A73E9" stroke-linecap="round" stroke-linejoin="round"/>
<path d="M10.6665 12.6667H14.6665" stroke="#1A73E9" stroke-linecap="round" stroke-linejoin="round"/>
</g>
<defs>
<clipPath id="clip0_240_8634">
<rect width="16" height="16" fill="white"/>
</clipPath>
</defs>
</svg>
