<svg width="58" height="58" viewBox="0 0 58 58" fill="none" xmlns="http://www.w3.org/2000/svg">
<rect width="58" height="58" rx="29" fill="#D53E3E" fill-opacity="0.05"/>
<g clip-path="url(#clip0_284_1641)">
<path d="M19.2137 29C19.2137 30.2661 19.4631 31.5198 19.9476 32.6895C20.4322 33.8593 21.1423 34.9221 22.0376 35.8174C22.9329 36.7126 23.9957 37.4228 25.1654 37.9073C26.3352 38.3919 27.5889 38.6412 28.855 38.6412C30.1211 38.6412 31.3748 38.3919 32.5445 37.9073C33.7143 37.4228 34.7771 36.7126 35.6724 35.8174C36.5677 34.9221 37.2778 33.8593 37.7623 32.6895C38.2469 31.5198 38.4962 30.2661 38.4962 29C38.4962 27.7339 38.2469 26.4802 37.7623 25.3104C37.2778 24.1407 36.5677 23.0779 35.6724 22.1826C34.7771 21.2873 33.7143 20.5771 32.5445 20.0926C31.3748 19.6081 30.1211 19.3587 28.855 19.3587C27.5889 19.3587 26.3352 19.6081 25.1654 20.0926C23.9957 20.5771 22.9329 21.2873 22.0376 22.1826C21.1423 23.0779 20.4322 24.1407 19.9476 25.3104C19.4631 26.4802 19.2137 27.7339 19.2137 29Z" stroke="#D53E3E" stroke-width="1.5" stroke-linecap="round" stroke-linejoin="round"/>
<path d="M22.1061 22.2511L35.6038 35.7488" stroke="#D53E3E" stroke-width="1.5" stroke-linecap="round" stroke-linejoin="round"/>
</g>
<defs>
<clipPath id="clip0_284_1641">
<rect width="25.71" height="25.71" fill="white" transform="translate(16 16.145)"/>
</clipPath>
</defs>
</svg>
