<svg width="61" height="60" viewBox="0 0 61 60" fill="none" xmlns="http://www.w3.org/2000/svg">
<path d="M54.5381 25.9407C55.3947 31.0326 54.6109 36.265 52.2999 40.8824C49.9889 45.4999 46.2702 49.2634 41.6808 51.6296C37.0914 53.9958 31.8687 54.8422 26.7669 54.0467C21.665 53.2512 16.948 50.8549 13.2969 47.2037C9.64576 43.5526 7.24944 38.8356 6.45391 33.7338C5.65839 28.6319 6.50484 23.4093 8.87104 18.8199C11.2372 14.2305 15.0008 10.5118 19.6182 8.20075C24.2356 5.88972 29.4681 5.10592 34.56 5.96253C35.0467 6.0486 35.4798 6.32338 35.7649 6.72708C36.0501 7.13079 36.1643 7.63077 36.0828 8.11827C36.0012 8.60576 35.7305 9.04133 35.3294 9.33024C34.9284 9.61914 34.4295 9.738 33.9412 9.66096C30.9837 9.16345 27.9533 9.31637 25.061 10.1091C22.1686 10.9018 19.4837 12.3153 17.1931 14.2512C14.9025 16.1871 13.0613 18.5988 11.7976 21.3186C10.5339 24.0385 9.87799 27.001 9.87561 30C9.87117 35.0489 11.7268 39.9225 15.0881 43.6899C16.4513 41.7127 18.1829 40.0169 20.1881 38.6953C20.3593 38.5819 20.563 38.5277 20.768 38.5413C20.9729 38.5548 21.1677 38.6353 21.3225 38.7703C23.8696 40.9744 27.1253 42.1874 30.4936 42.1874C33.8619 42.1874 37.1176 40.9744 39.6647 38.7703C39.8194 38.6353 40.0143 38.5548 40.2192 38.5413C40.4241 38.5277 40.6279 38.5819 40.799 38.6953C42.8062 40.0169 44.5402 41.7126 45.9061 43.6899C49.2699 39.9235 51.1281 35.0498 51.1256 30C51.1257 28.8472 51.0301 27.6964 50.8397 26.5594C50.7965 26.3155 50.8022 26.0655 50.8562 25.8237C50.9103 25.582 51.0117 25.3534 51.1546 25.1511C51.2975 24.9488 51.479 24.7768 51.6888 24.6451C51.8986 24.5133 52.1323 24.4245 52.3766 24.3836C52.6209 24.3427 52.8709 24.3507 53.1121 24.4069C53.3533 24.4632 53.581 24.5667 53.782 24.7115C53.9829 24.8563 54.1532 25.0395 54.283 25.2504C54.4128 25.4614 54.4995 25.696 54.5381 25.9407ZM20.1881 28.125C20.1881 30.1646 20.7929 32.1585 21.9261 33.8543C23.0592 35.5502 24.6698 36.872 26.5542 37.6525C28.4386 38.4331 30.5121 38.6373 32.5125 38.2394C34.5129 37.8415 36.3504 36.8593 37.7927 35.4171C39.2349 33.9748 40.217 32.1373 40.615 30.1369C41.0129 28.1365 40.8086 26.063 40.0281 24.1786C39.2476 22.2942 37.9258 20.6836 36.2299 19.5505C34.534 18.4173 32.5402 17.8125 30.5006 17.8125C27.7656 17.8125 25.1425 18.899 23.2086 20.833C21.2746 22.767 20.1881 25.39 20.1881 28.125Z" fill="#1A73E9"/>
<path d="M46 7.5C44.6155 7.5 43.2622 7.91054 42.111 8.67971C40.9599 9.44888 40.0627 10.5421 39.5328 11.8212C39.003 13.1003 38.8644 14.5078 39.1345 15.8656C39.4046 17.2235 40.0713 18.4708 41.0503 19.4497C42.0292 20.4287 43.2765 21.0954 44.6344 21.3655C45.9922 21.6356 47.3997 21.497 48.6788 20.9672C49.9579 20.4373 51.0511 19.5401 51.8203 18.389C52.5895 17.2378 53 15.8845 53 14.5C52.998 12.6441 52.2599 10.8647 50.9476 9.55242C49.6353 8.24009 47.8559 7.50196 46 7.5ZM45.7308 10.7308C45.8905 10.7308 46.0467 10.7781 46.1795 10.8669C46.3123 10.9556 46.4158 11.0818 46.477 11.2294C46.5381 11.377 46.5541 11.5394 46.5229 11.696C46.4918 11.8527 46.4149 11.9966 46.3019 12.1096C46.1889 12.2225 46.045 12.2995 45.8883 12.3306C45.7317 12.3618 45.5693 12.3458 45.4217 12.2847C45.2741 12.2235 45.1479 12.12 45.0592 11.9872C44.9704 11.8544 44.9231 11.6982 44.9231 11.5385C44.9231 11.3242 45.0082 11.1188 45.1596 10.9673C45.3111 10.8159 45.5166 10.7308 45.7308 10.7308ZM46.5385 18.2692C46.2528 18.2692 45.9789 18.1558 45.777 17.9538C45.575 17.7518 45.4615 17.4779 45.4615 17.1923V14.5C45.3187 14.5 45.1818 14.4433 45.0808 14.3423C44.9798 14.2413 44.9231 14.1043 44.9231 13.9615C44.9231 13.8187 44.9798 13.6818 45.0808 13.5808C45.1818 13.4798 45.3187 13.4231 45.4615 13.4231C45.7472 13.4231 46.0211 13.5365 46.223 13.7385C46.425 13.9405 46.5385 14.2144 46.5385 14.5V17.1923C46.6813 17.1923 46.8182 17.249 46.9192 17.35C47.0202 17.451 47.0769 17.588 47.0769 17.7308C47.0769 17.8736 47.0202 18.0105 46.9192 18.1115C46.8182 18.2125 46.6813 18.2692 46.5385 18.2692Z" fill="#D53E3E"/>
</svg>
